<svg width="40" height="40" viewBox="0 0 40 40" fill="none" xmlns="http://www.w3.org/2000/svg">
<path fill-rule="evenodd" clip-rule="evenodd" d="M4 0C1.79086 0 0 1.79086 0 4V36C0 38.2091 1.79086 40 4 40H36C38.2091 40 40 38.2091 40 36V4C40 1.79086 38.2091 0 36 0H4ZM24.8396 14.335L31.9479 13.8978C31.6077 11.3232 30.4169 9.28906 28.3755 7.79531C26.3463 6.30156 23.5637 5.55469 20.0278 5.55469L20.0019 5.5547V11.0575C20.0527 11.0565 20.1039 11.0561 20.1554 11.0561C21.0545 11.0561 21.8261 11.2079 22.4701 11.5115C23.1263 11.8029 23.6549 12.1976 24.0558 12.6955C24.4568 13.1813 24.7181 13.7278 24.8396 14.335ZM19.4263 16.6303C18.1262 16.351 17.2087 15.9806 16.6741 15.5191C16.2948 15.1917 16.0501 14.8124 15.9399 14.3811H8.16305C8.1878 16.4163 8.84979 18.0951 10.149 19.4174C11.4856 20.7654 13.5209 21.7127 16.2549 22.2592L21.1031 23.2246C22.3182 23.4675 23.2174 23.8197 23.8007 24.2812C24.2014 24.5899 24.4674 24.9589 24.5985 25.388H32.5845C32.5854 25.335 32.5858 25.2818 32.5858 25.2284C32.5858 23.2125 31.9175 21.5851 30.5809 20.3464C29.2443 19.1077 27.2151 18.209 24.4933 17.6504L19.4263 16.6303ZM11.2608 32.1325C9.07365 30.578 7.79172 28.4649 7.41504 25.7931L15.0519 25.3924C15.2828 26.5218 15.8418 27.3841 16.7288 27.9791C17.5868 28.543 18.6778 28.8341 20.0019 28.8526V34.4457C16.3507 34.4296 13.437 33.6585 11.2608 32.1325Z" fill="#1C2729"/>
</svg>
