<svg width="465" height="75" viewBox="0 0 465 75" fill="none" xmlns="http://www.w3.org/2000/svg">
<path fill-rule="evenodd" clip-rule="evenodd" d="M5.02277 45.2339C2.57997 43.0552 1.35107 40.13 1.33608 36.4583H12.3619C12.4382 37.0144 12.6146 37.5187 12.891 37.9712C13.3198 38.6464 13.9054 39.231 14.6477 39.7251C15.39 40.2027 16.2477 40.6227 17.2209 40.985C18.1941 41.3308 19.2333 41.6273 20.3385 41.8743L24.8912 42.9612C27.1015 43.4553 29.1304 44.1141 30.9779 44.9375C32.8253 45.7609 34.4254 46.7738 35.778 47.976C37.1306 49.1782 38.178 50.5946 38.9203 52.225C39.4878 53.4445 39.8477 54.7975 40 56.2842H29.0326C28.8637 55.7887 28.6049 55.3415 28.2562 54.9423C27.5964 54.1683 26.6232 53.5095 25.3365 52.9661C24.0664 52.4226 22.5076 51.9285 20.6602 51.4839L15.1425 50.1005C10.8703 49.063 7.49704 47.4408 5.02277 45.2339ZM20.2215 64.033C18.4012 64.0263 16.7659 63.7464 15.3157 63.1932C13.8642 62.6168 12.7013 61.7687 11.827 60.6488C10.9693 59.5125 10.4827 58.0961 10.3672 56.3998H0C0.0824758 60.0395 0.964966 63.0944 2.64747 65.5648C4.34647 68.0186 6.70528 69.8714 9.72389 71.123C12.7116 72.3551 16.2108 72.9808 20.2215 73V64.033ZM20.4622 29.9426C20.3814 29.9426 20.3012 29.9431 20.2215 29.9442V21.0016C20.3262 21.0005 20.4312 21 20.5365 21C24.2974 21 27.5799 21.6423 30.3841 22.9269C33.2047 24.2114 35.3986 25.9983 36.9656 28.2875C38.5327 30.5766 39.3409 33.2281 39.3904 36.2419H29.1222C28.9242 34.2492 28.0747 32.7011 26.5737 31.5977C25.0726 30.4943 23.0355 29.9426 20.4622 29.9426Z" fill="#1C2729"/>
<path d="M65.504 74.5069C62.1858 74.5069 59.1858 73.8933 56.504 72.666C53.8221 71.416 51.6971 69.6092 50.129 67.2456C48.5835 64.8819 47.8108 61.9842 47.8108 58.5524C47.8108 55.5978 48.379 53.166 49.5153 51.2569C50.6517 49.3478 52.1858 47.8365 54.1176 46.7228C56.0494 45.6092 58.2085 44.7683 60.5949 44.2001C62.9812 43.6319 65.4131 43.2001 67.8903 42.9046C71.0267 42.541 73.5721 42.2456 75.5267 42.0183C77.4812 41.7683 78.9017 41.3706 79.7881 40.8251C80.6744 40.2796 81.1176 39.3933 81.1176 38.166V37.9274C81.1176 34.9501 80.2767 32.6433 78.5949 31.0069C76.9358 29.3706 74.4585 28.5524 71.1631 28.5524C67.7312 28.5524 65.0267 29.3137 63.0494 30.8365C61.0949 32.3365 59.7426 34.0069 58.9926 35.8478L49.4131 33.666C50.5494 30.4842 52.2085 27.916 54.3903 25.9615C56.5949 23.9842 59.129 22.5524 61.9926 21.666C64.8562 20.7569 67.8676 20.3024 71.0267 20.3024C73.1176 20.3024 75.3335 20.5524 77.6744 21.0524C80.0381 21.5296 82.2426 22.416 84.2881 23.7115C86.3562 25.0069 88.0494 26.8592 89.3676 29.2683C90.6858 31.6546 91.3449 34.7569 91.3449 38.5751V73.3478H81.3903V66.1887H80.9812C80.3221 67.5069 79.3335 68.8024 78.0153 70.0751C76.6971 71.3478 75.004 72.4046 72.9358 73.2456C70.8676 74.0865 68.3903 74.5069 65.504 74.5069ZM67.7199 66.3251C70.5381 66.3251 72.9471 65.7683 74.9471 64.6546C76.9699 63.541 78.504 62.0865 79.5494 60.291C80.6176 58.4728 81.1517 56.5296 81.1517 54.4615V47.7115C80.7881 48.0751 80.0835 48.416 79.0381 48.7342C78.0153 49.0296 76.8449 49.291 75.5267 49.5183C74.2085 49.7228 72.9244 49.916 71.6744 50.0978C70.4244 50.2569 69.379 50.3933 68.5381 50.5069C66.5608 50.7569 64.754 51.1774 63.1176 51.7683C61.504 52.3592 60.2085 53.2115 59.2312 54.3251C58.2767 55.416 57.7994 56.8706 57.7994 58.6887C57.7994 61.2115 58.7312 63.1206 60.5949 64.416C62.4585 65.6887 64.8335 66.3251 67.7199 66.3251ZM142.082 20.9842L123.093 73.3478H112.184L93.1616 20.9842H104.105L117.366 61.2796H117.912L131.139 20.9842H142.082ZM166.689 74.4046C161.529 74.4046 157.086 73.3024 153.359 71.0978C149.654 68.8706 146.791 65.7456 144.768 61.7228C142.768 57.6774 141.768 52.9387 141.768 47.5069C141.768 42.1433 142.768 37.416 144.768 33.3251C146.791 29.2342 149.609 26.041 153.223 23.7456C156.859 21.4501 161.109 20.3024 165.973 20.3024C168.927 20.3024 171.791 20.791 174.564 21.7683C177.336 22.7456 179.825 24.2796 182.029 26.3706C184.234 28.4615 185.973 31.1774 187.245 34.5183C188.518 37.8365 189.154 41.8706 189.154 46.6206V50.2342H147.529V42.5978H179.166C179.166 39.916 178.62 37.541 177.529 35.4728C176.439 33.3819 174.904 31.7342 172.927 30.5296C170.973 29.3251 168.677 28.7228 166.041 28.7228C163.177 28.7228 160.677 29.4274 158.541 30.8365C156.427 32.2228 154.791 34.041 153.632 36.291C152.495 38.5183 151.927 40.9387 151.927 43.5524V49.5183C151.927 53.0183 152.541 55.9956 153.768 58.4501C155.018 60.9046 156.757 62.7796 158.984 64.0751C161.211 65.3478 163.814 65.9842 166.791 65.9842C168.723 65.9842 170.484 65.7115 172.075 65.166C173.666 64.5978 175.041 63.7569 176.2 62.6433C177.359 61.5296 178.245 60.1546 178.859 58.5183L188.507 60.2569C187.734 63.0978 186.348 65.5865 184.348 67.7228C182.37 69.8365 179.882 71.4842 176.882 72.666C173.904 73.8251 170.507 74.4046 166.689 74.4046ZM205.963 73.3478L190.554 20.9842H201.088L211.349 59.4387H211.86L222.156 20.9842H232.69L242.917 59.2683H243.429L253.622 20.9842H264.156L248.781 73.3478H238.383L227.747 35.541H226.963L216.326 73.3478H205.963ZM268.069 73.3478V20.9842H278.262V73.3478H268.069ZM273.217 12.9046C271.444 12.9046 269.921 12.3137 268.649 11.1319C267.399 9.92737 266.774 8.49555 266.774 6.83646C266.774 5.15464 267.399 3.72282 268.649 2.541C269.921 1.33646 271.444 0.734188 273.217 0.734188C274.99 0.734188 276.501 1.33646 277.751 2.541C279.024 3.72282 279.66 5.15464 279.66 6.83646C279.66 8.49555 279.024 9.92737 277.751 11.1319C276.501 12.3137 274.99 12.9046 273.217 12.9046ZM325.454 33.7683L316.215 35.4046C315.829 34.2228 315.215 33.0978 314.374 32.0296C313.556 30.9615 312.443 30.0865 311.034 29.4046C309.624 28.7228 307.863 28.3819 305.749 28.3819C302.863 28.3819 300.454 29.0296 298.522 30.3251C296.59 31.5978 295.624 33.2456 295.624 35.2683C295.624 37.0183 296.272 38.4274 297.568 39.4956C298.863 40.5637 300.954 41.4387 303.84 42.1206L312.159 44.0296C316.977 45.1433 320.568 46.8592 322.931 49.1774C325.295 51.4956 326.477 54.5069 326.477 58.2115C326.477 61.3478 325.568 64.1433 323.749 66.5978C321.954 69.0296 319.443 70.9387 316.215 72.3251C313.011 73.7115 309.295 74.4046 305.068 74.4046C299.204 74.4046 294.42 73.1546 290.715 70.6546C287.011 68.1319 284.738 64.5524 283.897 59.916L293.749 58.416C294.363 60.9842 295.624 62.9274 297.534 64.2456C299.443 65.541 301.931 66.1887 304.999 66.1887C308.34 66.1887 311.011 65.4956 313.011 64.1092C315.011 62.7001 316.011 60.9842 316.011 58.9615C316.011 57.3251 315.397 55.9501 314.17 54.8365C312.965 53.7228 311.113 52.8819 308.613 52.3137L299.749 50.3706C294.863 49.2569 291.249 47.4842 288.909 45.0524C286.59 42.6206 285.431 39.541 285.431 35.8137C285.431 32.7228 286.295 30.0183 288.022 27.7001C289.749 25.3819 292.136 23.5751 295.181 22.2796C298.227 20.9615 301.715 20.3024 305.647 20.3024C311.306 20.3024 315.761 21.5296 319.011 23.9842C322.261 26.416 324.409 29.6774 325.454 33.7683ZM354.492 74.4046C349.333 74.4046 344.89 73.3024 341.163 71.0978C337.458 68.8706 334.595 65.7456 332.572 61.7228C330.572 57.6774 329.572 52.9387 329.572 47.5069C329.572 42.1433 330.572 37.416 332.572 33.3251C334.595 29.2342 337.413 26.041 341.026 23.7456C344.663 21.4501 348.913 20.3024 353.776 20.3024C356.731 20.3024 359.595 20.791 362.367 21.7683C365.14 22.7456 367.629 24.2796 369.833 26.3706C372.038 28.4615 373.776 31.1774 375.049 34.5183C376.322 37.8365 376.958 41.8706 376.958 46.6206V50.2342H335.333V42.5978H366.97C366.97 39.916 366.424 37.541 365.333 35.4728C364.242 33.3819 362.708 31.7342 360.731 30.5296C358.776 29.3251 356.481 28.7228 353.845 28.7228C350.981 28.7228 348.481 29.4274 346.345 30.8365C344.231 32.2228 342.595 34.041 341.435 36.291C340.299 38.5183 339.731 40.9387 339.731 43.5524V49.5183C339.731 53.0183 340.345 55.9956 341.572 58.4501C342.822 60.9046 344.56 62.7796 346.788 64.0751C349.015 65.3478 351.617 65.9842 354.595 65.9842C356.526 65.9842 358.288 65.7115 359.879 65.166C361.47 64.5978 362.845 63.7569 364.004 62.6433C365.163 61.5296 366.049 60.1546 366.663 58.5183L376.31 60.2569C375.538 63.0978 374.151 65.5865 372.151 67.7228C370.174 69.8365 367.685 71.4842 364.685 72.666C361.708 73.8251 358.31 74.4046 354.492 74.4046Z" fill="#1C2729"/>
</svg>
